<?xml version="1.0" encoding="UTF-8" standalone="no"?>
<!DOCTYPE svg PUBLIC "-//W3C//DTD SVG 1.1//EN"
 "http://www.w3.org/Graphics/SVG/1.1/DTD/svg11.dtd">
<!-- Generated by graphviz version 2.43.0 (0)
 -->
<!-- Title: Graphical Class Hierarchy Pages: 1 -->
<svg width="256pt" height="187pt"
 viewBox="0.00 0.00 256.00 186.50" xmlns="http://www.w3.org/2000/svg" xmlns:xlink="http://www.w3.org/1999/xlink">
<g id="graph0" class="graph" transform="scale(1 1) rotate(0) translate(4 182.5)">
<title>Graphical Class Hierarchy</title>
<!-- Node0 -->
<g id="node1" class="node">
<title>Node0</title>
<g id="a_node1"><a xlink:title=" ">
<polygon fill="#e0e0e0" stroke="#999999" points="56,-104.5 0,-104.5 0,-85.5 56,-85.5 56,-104.5"/>
<text text-anchor="middle" x="28" y="-92.5" font-family="Helvetica,sans-Serif" font-size="10.00">QObject</text>
</a>
</g>
</g>
<!-- Node1 -->
<g id="node2" class="node">
<title>Node1</title>
<g id="a_node2"><a xlink:href="classCavokeClientController.html" target="_top" xlink:title=" ">
<polygon fill="white" stroke="#666666" points="234.5,-178.5 105.5,-178.5 105.5,-159.5 234.5,-159.5 234.5,-178.5"/>
<text text-anchor="middle" x="170" y="-166.5" font-family="Helvetica,sans-Serif" font-size="10.00">CavokeClientController</text>
</a>
</g>
</g>
<!-- Node0&#45;&gt;Node1 -->
<g id="edge1" class="edge">
<title>Node0&#45;&gt;Node1</title>
<path fill="none" stroke="#63b8ff" d="M43.79,-112.11C55.6,-124.71 73.24,-141.28 92,-151 98.58,-154.41 105.81,-157.18 113.13,-159.44"/>
<polygon fill="#63b8ff" stroke="#63b8ff" points="46.22,-109.58 36.91,-104.52 41.03,-114.28 46.22,-109.58"/>
</g>
<!-- Node2 -->
<g id="node3" class="node">
<title>Node2</title>
<g id="a_node3"><a xlink:href="classCavokeClientModel.html" target="_top" xlink:title=" ">
<polygon fill="white" stroke="#666666" points="225.5,-141.5 114.5,-141.5 114.5,-122.5 225.5,-122.5 225.5,-141.5"/>
<text text-anchor="middle" x="170" y="-129.5" font-family="Helvetica,sans-Serif" font-size="10.00">CavokeClientModel</text>
</a>
</g>
</g>
<!-- Node0&#45;&gt;Node2 -->
<g id="edge2" class="edge">
<title>Node0&#45;&gt;Node2</title>
<path fill="none" stroke="#63b8ff" d="M65.9,-106.55C74.44,-109.11 83.51,-111.73 92,-114 103.01,-116.94 114.97,-119.87 126.11,-122.48"/>
<polygon fill="#63b8ff" stroke="#63b8ff" points="66.77,-103.16 56.18,-103.61 64.74,-109.86 66.77,-103.16"/>
</g>
<!-- Node3 -->
<g id="node4" class="node">
<title>Node3</title>
<g id="a_node4"><a xlink:href="classCavokeQmlGameModel.html" target="_top" xlink:title=" ">
<polygon fill="white" stroke="#666666" points="236,-104.5 104,-104.5 104,-85.5 236,-85.5 236,-104.5"/>
<text text-anchor="middle" x="170" y="-92.5" font-family="Helvetica,sans-Serif" font-size="10.00">CavokeQmlGameModel</text>
</a>
</g>
</g>
<!-- Node0&#45;&gt;Node3 -->
<g id="edge3" class="edge">
<title>Node0&#45;&gt;Node3</title>
<path fill="none" stroke="#63b8ff" d="M66.42,-95C77.92,-95 90.94,-95 103.74,-95"/>
<polygon fill="#63b8ff" stroke="#63b8ff" points="66.33,-91.5 56.33,-95 66.33,-98.5 66.33,-91.5"/>
</g>
<!-- Node4 -->
<g id="node5" class="node">
<title>Node4</title>
<g id="a_node5"><a xlink:href="structNetworkManager.html" target="_top" xlink:title=" ">
<polygon fill="white" stroke="#666666" points="220.5,-67.5 119.5,-67.5 119.5,-48.5 220.5,-48.5 220.5,-67.5"/>
<text text-anchor="middle" x="170" y="-55.5" font-family="Helvetica,sans-Serif" font-size="10.00">NetworkManager</text>
</a>
</g>
</g>
<!-- Node0&#45;&gt;Node4 -->
<g id="edge4" class="edge">
<title>Node0&#45;&gt;Node4</title>
<path fill="none" stroke="#63b8ff" d="M65.95,-84.2C74.49,-81.77 83.55,-79.25 92,-77 103.98,-73.81 117.05,-70.52 128.96,-67.59"/>
<polygon fill="#63b8ff" stroke="#63b8ff" points="64.88,-80.87 56.23,-86.99 66.81,-87.6 64.88,-80.87"/>
</g>
<!-- Node5 -->
<g id="node6" class="node">
<title>Node5</title>
<g id="a_node6"><a xlink:href="structcavoke_1_1auth_1_1AuthenticationManager.html" target="_top" xlink:title=" ">
<polygon fill="white" stroke="#666666" points="248,-30 92,-30 92,0 248,0 248,-30"/>
<text text-anchor="start" x="100" y="-18" font-family="Helvetica,sans-Serif" font-size="10.00">cavoke::auth::Authentication</text>
<text text-anchor="middle" x="170" y="-7" font-family="Helvetica,sans-Serif" font-size="10.00">Manager</text>
</a>
</g>
</g>
<!-- Node0&#45;&gt;Node5 -->
<g id="edge5" class="edge">
<title>Node0&#45;&gt;Node5</title>
<path fill="none" stroke="#63b8ff" d="M44.91,-77.81C56.87,-65.78 74.18,-50.1 92,-40 98.6,-36.26 105.85,-32.98 113.16,-30.14"/>
<polygon fill="#63b8ff" stroke="#63b8ff" points="42.31,-75.47 37.88,-85.1 47.34,-80.33 42.31,-75.47"/>
</g>
</g>
</svg>
