<?xml version="1.0" encoding="UTF-8" standalone="no"?>
<!DOCTYPE svg PUBLIC "-//W3C//DTD SVG 1.1//EN"
 "http://www.w3.org/Graphics/SVG/1.1/DTD/svg11.dtd">
<!-- Generated by graphviz version 2.43.0 (0)
 -->
<!-- Title: Graphical Class Hierarchy Pages: 1 -->
<svg width="330pt" height="422pt"
 viewBox="0.00 0.00 330.00 422.00" xmlns="http://www.w3.org/2000/svg" xmlns:xlink="http://www.w3.org/1999/xlink">
<g id="graph0" class="graph" transform="scale(1 1) rotate(0) translate(4 418)">
<title>Graphical Class Hierarchy</title>
<!-- Node0 -->
<g id="node1" class="node">
<title>Node0</title>
<g id="a_node1"><a xlink:title=" ">
<polygon fill="#e0e0e0" stroke="#999999" points="125,-216.5 0,-216.5 0,-197.5 125,-197.5 125,-216.5"/>
<text text-anchor="middle" x="62.5" y="-204.5" font-family="Helvetica,sans-Serif" font-size="10.00">drogon::HttpController</text>
</a>
</g>
</g>
<!-- Node1 -->
<g id="node2" class="node">
<title>Node1</title>
<g id="a_node2"><a xlink:href="classcavoke_1_1logic__server_1_1controllers_1_1LogicController.html" target="_top" xlink:title=" ">
<polygon fill="white" stroke="#666666" points="318.5,-414 164.5,-414 164.5,-384 318.5,-384 318.5,-414"/>
<text text-anchor="start" x="172.5" y="-402" font-family="Helvetica,sans-Serif" font-size="10.00">cavoke::logic_server</text>
<text text-anchor="middle" x="241.5" y="-391" font-family="Helvetica,sans-Serif" font-size="10.00">::controllers::LogicController</text>
</a>
</g>
</g>
<!-- Node0&#45;&gt;Node1 -->
<g id="edge1" class="edge">
<title>Node0&#45;&gt;Node1</title>
<path fill="none" stroke="#63b8ff" d="M69.51,-226.6C81.26,-261.66 110.64,-335.18 161,-375 165.3,-378.4 170.07,-381.32 175.08,-383.82"/>
<polygon fill="#63b8ff" stroke="#63b8ff" points="72.7,-225.1 66.31,-216.66 66.04,-227.25 72.7,-225.1"/>
</g>
<!-- Node2 -->
<g id="node3" class="node">
<title>Node2</title>
<g id="a_node3"><a xlink:href="classcavoke_1_1server_1_1controllers_1_1GameSubmissionsController.html" target="_top" xlink:title=" ">
<polygon fill="white" stroke="#666666" points="322,-366 161,-366 161,-336 322,-336 322,-366"/>
<text text-anchor="start" x="169" y="-354" font-family="Helvetica,sans-Serif" font-size="10.00">cavoke::server::controllers</text>
<text text-anchor="middle" x="241.5" y="-343" font-family="Helvetica,sans-Serif" font-size="10.00">::GameSubmissionsController</text>
</a>
</g>
</g>
<!-- Node0&#45;&gt;Node2 -->
<g id="edge2" class="edge">
<title>Node0&#45;&gt;Node2</title>
<path fill="none" stroke="#63b8ff" d="M73.8,-225.72C89.29,-252.17 121.07,-300.22 161,-327 166.15,-330.45 171.81,-333.42 177.67,-335.98"/>
<polygon fill="#63b8ff" stroke="#63b8ff" points="76.67,-223.69 68.67,-216.73 70.58,-227.15 76.67,-223.69"/>
</g>
<!-- Node3 -->
<g id="node4" class="node">
<title>Node3</title>
<g id="a_node4"><a xlink:href="classcavoke_1_1server_1_1controllers_1_1GamesController.html" target="_top" xlink:title=" ">
<polygon fill="white" stroke="#666666" points="314.5,-318 168.5,-318 168.5,-288 314.5,-288 314.5,-318"/>
<text text-anchor="start" x="176.5" y="-306" font-family="Helvetica,sans-Serif" font-size="10.00">cavoke::server::controllers</text>
<text text-anchor="middle" x="241.5" y="-295" font-family="Helvetica,sans-Serif" font-size="10.00">::GamesController</text>
</a>
</g>
</g>
<!-- Node0&#45;&gt;Node3 -->
<g id="edge3" class="edge">
<title>Node0&#45;&gt;Node3</title>
<path fill="none" stroke="#63b8ff" d="M81.5,-223.29C100.18,-239.43 130.82,-263.87 161,-279 167.7,-282.36 174.96,-285.34 182.28,-287.97"/>
<polygon fill="#63b8ff" stroke="#63b8ff" points="83.63,-220.5 73.81,-216.52 79,-225.75 83.63,-220.5"/>
</g>
<!-- Node4 -->
<g id="node5" class="node">
<title>Node4</title>
<g id="a_node5"><a xlink:href="classcavoke_1_1server_1_1controllers_1_1HealthController.html" target="_top" xlink:title=" ">
<polygon fill="white" stroke="#666666" points="314.5,-270 168.5,-270 168.5,-240 314.5,-240 314.5,-270"/>
<text text-anchor="start" x="176.5" y="-258" font-family="Helvetica,sans-Serif" font-size="10.00">cavoke::server::controllers</text>
<text text-anchor="middle" x="241.5" y="-247" font-family="Helvetica,sans-Serif" font-size="10.00">::HealthController</text>
</a>
</g>
</g>
<!-- Node0&#45;&gt;Node4 -->
<g id="edge4" class="edge">
<title>Node0&#45;&gt;Node4</title>
<path fill="none" stroke="#63b8ff" d="M108.82,-219.29C132.01,-225.58 160.45,-233.29 184.96,-239.94"/>
<polygon fill="#63b8ff" stroke="#63b8ff" points="109.46,-215.84 98.89,-216.6 107.63,-222.59 109.46,-215.84"/>
</g>
<!-- Node5 -->
<g id="node6" class="node">
<title>Node5</title>
<g id="a_node6"><a xlink:href="classcavoke_1_1server_1_1controllers_1_1RoomsController.html" target="_top" xlink:title=" ">
<polygon fill="white" stroke="#666666" points="314.5,-222 168.5,-222 168.5,-192 314.5,-192 314.5,-222"/>
<text text-anchor="start" x="176.5" y="-210" font-family="Helvetica,sans-Serif" font-size="10.00">cavoke::server::controllers</text>
<text text-anchor="middle" x="241.5" y="-199" font-family="Helvetica,sans-Serif" font-size="10.00">::RoomsController</text>
</a>
</g>
</g>
<!-- Node0&#45;&gt;Node5 -->
<g id="edge5" class="edge">
<title>Node0&#45;&gt;Node5</title>
<path fill="none" stroke="#63b8ff" d="M135.62,-207C146.41,-207 157.53,-207 168.31,-207"/>
<polygon fill="#63b8ff" stroke="#63b8ff" points="135.41,-203.5 125.41,-207 135.41,-210.5 135.41,-203.5"/>
</g>
<!-- Node6 -->
<g id="node7" class="node">
<title>Node6</title>
<g id="a_node7"><a xlink:href="classcavoke_1_1server_1_1controllers_1_1SessionsController.html" target="_top" xlink:title=" ">
<polygon fill="white" stroke="#666666" points="314.5,-174 168.5,-174 168.5,-144 314.5,-144 314.5,-174"/>
<text text-anchor="start" x="176.5" y="-162" font-family="Helvetica,sans-Serif" font-size="10.00">cavoke::server::controllers</text>
<text text-anchor="middle" x="241.5" y="-151" font-family="Helvetica,sans-Serif" font-size="10.00">::SessionsController</text>
</a>
</g>
</g>
<!-- Node0&#45;&gt;Node6 -->
<g id="edge6" class="edge">
<title>Node0&#45;&gt;Node6</title>
<path fill="none" stroke="#63b8ff" d="M108.82,-194.71C132.01,-188.42 160.45,-180.71 184.96,-174.06"/>
<polygon fill="#63b8ff" stroke="#63b8ff" points="107.63,-191.41 98.89,-197.4 109.46,-198.16 107.63,-191.41"/>
</g>
<!-- Node7 -->
<g id="node8" class="node">
<title>Node7</title>
<g id="a_node8"><a xlink:href="classcavoke_1_1server_1_1controllers_1_1StateController.html" target="_top" xlink:title=" ">
<polygon fill="white" stroke="#666666" points="314.5,-126 168.5,-126 168.5,-96 314.5,-96 314.5,-126"/>
<text text-anchor="start" x="176.5" y="-114" font-family="Helvetica,sans-Serif" font-size="10.00">cavoke::server::controllers</text>
<text text-anchor="middle" x="241.5" y="-103" font-family="Helvetica,sans-Serif" font-size="10.00">::StateController</text>
</a>
</g>
</g>
<!-- Node0&#45;&gt;Node7 -->
<g id="edge7" class="edge">
<title>Node0&#45;&gt;Node7</title>
<path fill="none" stroke="#63b8ff" d="M81.5,-190.71C100.18,-174.57 130.82,-150.13 161,-135 167.7,-131.64 174.96,-128.66 182.28,-126.03"/>
<polygon fill="#63b8ff" stroke="#63b8ff" points="79,-188.25 73.81,-197.48 83.63,-193.5 79,-188.25"/>
</g>
<!-- Node8 -->
<g id="node9" class="node">
<title>Node8</title>
<g id="a_node9"><a xlink:href="classcavoke_1_1server_1_1controllers_1_1StatisticsController.html" target="_top" xlink:title=" ">
<polygon fill="white" stroke="#666666" points="314.5,-78 168.5,-78 168.5,-48 314.5,-48 314.5,-78"/>
<text text-anchor="start" x="176.5" y="-66" font-family="Helvetica,sans-Serif" font-size="10.00">cavoke::server::controllers</text>
<text text-anchor="middle" x="241.5" y="-55" font-family="Helvetica,sans-Serif" font-size="10.00">::StatisticsController</text>
</a>
</g>
</g>
<!-- Node0&#45;&gt;Node8 -->
<g id="edge8" class="edge">
<title>Node0&#45;&gt;Node8</title>
<path fill="none" stroke="#63b8ff" d="M73.8,-188.28C89.29,-161.83 121.07,-113.78 161,-87 166.15,-83.55 171.81,-80.58 177.67,-78.02"/>
<polygon fill="#63b8ff" stroke="#63b8ff" points="70.58,-186.85 68.67,-197.27 76.67,-190.31 70.58,-186.85"/>
</g>
<!-- Node9 -->
<g id="node10" class="node">
<title>Node9</title>
<g id="a_node10"><a xlink:href="structcavoke_1_1server_1_1controllers_1_1UsersController.html" target="_top" xlink:title=" ">
<polygon fill="white" stroke="#666666" points="314.5,-30 168.5,-30 168.5,0 314.5,0 314.5,-30"/>
<text text-anchor="start" x="176.5" y="-18" font-family="Helvetica,sans-Serif" font-size="10.00">cavoke::server::controllers</text>
<text text-anchor="middle" x="241.5" y="-7" font-family="Helvetica,sans-Serif" font-size="10.00">::UsersController</text>
</a>
</g>
</g>
<!-- Node0&#45;&gt;Node9 -->
<g id="edge9" class="edge">
<title>Node0&#45;&gt;Node9</title>
<path fill="none" stroke="#63b8ff" d="M69.51,-187.4C81.26,-152.34 110.64,-78.82 161,-39 165.3,-35.6 170.07,-32.68 175.08,-30.18"/>
<polygon fill="#63b8ff" stroke="#63b8ff" points="66.04,-186.75 66.31,-197.34 72.7,-188.9 66.04,-186.75"/>
</g>
</g>
</svg>
