<?xml version="1.0" encoding="UTF-8" standalone="no"?>
<!DOCTYPE svg PUBLIC "-//W3C//DTD SVG 1.1//EN"
 "http://www.w3.org/Graphics/SVG/1.1/DTD/svg11.dtd">
<!-- Generated by graphviz version 2.43.0 (0)
 -->
<!-- Title: Graphical Class Hierarchy Pages: 1 -->
<svg width="233pt" height="323pt"
 viewBox="0.00 0.00 233.00 323.00" xmlns="http://www.w3.org/2000/svg" xmlns:xlink="http://www.w3.org/1999/xlink">
<g id="graph0" class="graph" transform="scale(1 1) rotate(0) translate(4 319)">
<title>Graphical Class Hierarchy</title>
<!-- Node0 -->
<g id="node1" class="node">
<title>Node0</title>
<g id="a_node1"><a xlink:title=" ">
<polygon fill="#e0e0e0" stroke="#999999" points="87,-167 0,-167 0,-148 87,-148 87,-167"/>
<text text-anchor="middle" x="43.5" y="-155" font-family="Helvetica,sans-Serif" font-size="10.00">QMainWindow</text>
</a>
</g>
</g>
<!-- Node1 -->
<g id="node2" class="node">
<title>Node1</title>
<g id="a_node2"><a xlink:href="classCreateGameView.html" target="_top" xlink:title=" ">
<polygon fill="white" stroke="#666666" points="225,-315 123,-315 123,-296 225,-296 225,-315"/>
<text text-anchor="middle" x="174" y="-303" font-family="Helvetica,sans-Serif" font-size="10.00">CreateGameView</text>
</a>
</g>
</g>
<!-- Node0&#45;&gt;Node1 -->
<g id="edge1" class="edge">
<title>Node0&#45;&gt;Node1</title>
<path fill="none" stroke="#63b8ff" d="M51.28,-176.7C62.16,-204.85 86.11,-257.27 123,-287.5 127.14,-290.89 131.97,-293.67 136.96,-295.94"/>
<polygon fill="#63b8ff" stroke="#63b8ff" points="54.51,-175.35 47.75,-167.19 47.95,-177.79 54.51,-175.35"/>
</g>
<!-- Node2 -->
<g id="node3" class="node">
<title>Node2</title>
<g id="a_node3"><a xlink:href="classGamesListView.html" target="_top" xlink:title=" ">
<polygon fill="white" stroke="#666666" points="220,-278 128,-278 128,-259 220,-259 220,-278"/>
<text text-anchor="middle" x="174" y="-266" font-family="Helvetica,sans-Serif" font-size="10.00">GamesListView</text>
</a>
</g>
</g>
<!-- Node0&#45;&gt;Node2 -->
<g id="edge2" class="edge">
<title>Node0&#45;&gt;Node2</title>
<path fill="none" stroke="#63b8ff" d="M55.56,-175.64C69.09,-196.42 93.82,-230.21 123,-250.5 127.77,-253.82 133.22,-256.59 138.73,-258.89"/>
<polygon fill="#63b8ff" stroke="#63b8ff" points="58.47,-173.68 50.16,-167.1 52.55,-177.43 58.47,-173.68"/>
</g>
<!-- Node3 -->
<g id="node4" class="node">
<title>Node3</title>
<g id="a_node4"><a xlink:href="classJoinGameView.html" target="_top" xlink:title=" ">
<polygon fill="white" stroke="#666666" points="218,-241 130,-241 130,-222 218,-222 218,-241"/>
<text text-anchor="middle" x="174" y="-229" font-family="Helvetica,sans-Serif" font-size="10.00">JoinGameView</text>
</a>
</g>
</g>
<!-- Node0&#45;&gt;Node3 -->
<g id="edge3" class="edge">
<title>Node0&#45;&gt;Node3</title>
<path fill="none" stroke="#63b8ff" d="M63.97,-173.7C79.29,-185.85 101.55,-202.26 123,-213.5 129.05,-216.67 135.78,-219.51 142.29,-221.95"/>
<polygon fill="#63b8ff" stroke="#63b8ff" points="65.79,-170.67 55.81,-167.1 61.39,-176.11 65.79,-170.67"/>
</g>
<!-- Node4 -->
<g id="node5" class="node">
<title>Node4</title>
<g id="a_node5"><a xlink:href="classRoomView.html" target="_top" xlink:title=" ">
<polygon fill="white" stroke="#666666" points="208.5,-204 139.5,-204 139.5,-185 208.5,-185 208.5,-204"/>
<text text-anchor="middle" x="174" y="-192" font-family="Helvetica,sans-Serif" font-size="10.00">RoomView</text>
</a>
</g>
</g>
<!-- Node0&#45;&gt;Node4 -->
<g id="edge4" class="edge">
<title>Node0&#45;&gt;Node4</title>
<path fill="none" stroke="#63b8ff" d="M87.31,-169.83C104.33,-174.73 123.61,-180.28 139.57,-184.88"/>
<polygon fill="#63b8ff" stroke="#63b8ff" points="88.17,-166.43 77.59,-167.03 86.23,-173.16 88.17,-166.43"/>
</g>
<!-- Node5 -->
<g id="node6" class="node">
<title>Node5</title>
<g id="a_node6"><a xlink:href="classSessionView.html" target="_top" xlink:title=" ">
<polygon fill="white" stroke="#666666" points="213,-167 135,-167 135,-148 213,-148 213,-167"/>
<text text-anchor="middle" x="174" y="-155" font-family="Helvetica,sans-Serif" font-size="10.00">SessionView</text>
</a>
</g>
</g>
<!-- Node0&#45;&gt;Node5 -->
<g id="edge5" class="edge">
<title>Node0&#45;&gt;Node5</title>
<path fill="none" stroke="#63b8ff" d="M97.57,-157.5C110.03,-157.5 123.06,-157.5 134.72,-157.5"/>
<polygon fill="#63b8ff" stroke="#63b8ff" points="97.29,-154 87.29,-157.5 97.29,-161 97.29,-154"/>
</g>
<!-- Node6 -->
<g id="node7" class="node">
<title>Node6</title>
<g id="a_node7"><a xlink:href="classSettingsView.html" target="_top" xlink:title=" ">
<polygon fill="white" stroke="#666666" points="214,-130 134,-130 134,-111 214,-111 214,-130"/>
<text text-anchor="middle" x="174" y="-118" font-family="Helvetica,sans-Serif" font-size="10.00">SettingsView</text>
</a>
</g>
</g>
<!-- Node0&#45;&gt;Node6 -->
<g id="edge6" class="edge">
<title>Node0&#45;&gt;Node6</title>
<path fill="none" stroke="#63b8ff" d="M87.31,-145.17C104.33,-140.27 123.61,-134.72 139.57,-130.12"/>
<polygon fill="#63b8ff" stroke="#63b8ff" points="86.23,-141.84 77.59,-147.97 88.17,-148.57 86.23,-141.84"/>
</g>
<!-- Node7 -->
<g id="node8" class="node">
<title>Node7</title>
<g id="a_node8"><a xlink:href="classStartView.html" target="_top" xlink:title=" ">
<polygon fill="white" stroke="#666666" points="206,-93 142,-93 142,-74 206,-74 206,-93"/>
<text text-anchor="middle" x="174" y="-81" font-family="Helvetica,sans-Serif" font-size="10.00">StartView</text>
</a>
</g>
</g>
<!-- Node0&#45;&gt;Node7 -->
<g id="edge7" class="edge">
<title>Node0&#45;&gt;Node7</title>
<path fill="none" stroke="#63b8ff" d="M64.34,-141.52C79.7,-129.67 101.86,-113.7 123,-102.5 129.65,-98.98 137.09,-95.78 144.17,-93.06"/>
<polygon fill="#63b8ff" stroke="#63b8ff" points="61.85,-139.02 56.14,-147.95 66.17,-144.53 61.85,-139.02"/>
</g>
<!-- Node8 -->
<g id="node9" class="node">
<title>Node8</title>
<g id="a_node9"><a xlink:href="classStatisticsView.html" target="_top" xlink:title=" ">
<polygon fill="white" stroke="#666666" points="217,-56 131,-56 131,-37 217,-37 217,-56"/>
<text text-anchor="middle" x="174" y="-44" font-family="Helvetica,sans-Serif" font-size="10.00">StatisticsView</text>
</a>
</g>
</g>
<!-- Node0&#45;&gt;Node8 -->
<g id="edge8" class="edge">
<title>Node0&#45;&gt;Node8</title>
<path fill="none" stroke="#63b8ff" d="M55.88,-139.33C69.56,-118.84 94.27,-85.74 123,-65.5 128.31,-61.76 134.46,-58.64 140.59,-56.09"/>
<polygon fill="#63b8ff" stroke="#63b8ff" points="52.92,-137.47 50.4,-147.77 58.79,-141.29 52.92,-137.47"/>
</g>
<!-- Node9 -->
<g id="node10" class="node">
<title>Node9</title>
<g id="a_node10"><a xlink:href="classTestWindowView.html" target="_top" xlink:title=" ">
<polygon fill="white" stroke="#666666" points="223.5,-19 124.5,-19 124.5,0 223.5,0 223.5,-19"/>
<text text-anchor="middle" x="174" y="-7" font-family="Helvetica,sans-Serif" font-size="10.00">TestWindowView</text>
</a>
</g>
</g>
<!-- Node0&#45;&gt;Node9 -->
<g id="edge9" class="edge">
<title>Node0&#45;&gt;Node9</title>
<path fill="none" stroke="#63b8ff" d="M51.39,-138.53C62.41,-110.7 86.54,-58.82 123,-28.5 127.64,-24.64 133.15,-21.52 138.78,-19"/>
<polygon fill="#63b8ff" stroke="#63b8ff" points="48.1,-137.34 47.81,-147.93 54.64,-139.83 48.1,-137.34"/>
</g>
</g>
</svg>
