<?xml version="1.0" encoding="UTF-8" standalone="no"?>
<!DOCTYPE svg PUBLIC "-//W3C//DTD SVG 1.1//EN"
 "http://www.w3.org/Graphics/SVG/1.1/DTD/svg11.dtd">
<!-- Generated by graphviz version 2.43.0 (0)
 -->
<!-- Title: cavoke::server::cavoke_base_exception Pages: 1 -->
<svg width="559pt" height="182pt"
 viewBox="0.00 0.00 559.00 182.00" xmlns="http://www.w3.org/2000/svg" xmlns:xlink="http://www.w3.org/1999/xlink">
<g id="graph0" class="graph" transform="scale(1 1) rotate(0) translate(4 178)">
<title>cavoke::server::cavoke_base_exception</title>
<!-- Node1 -->
<g id="node1" class="node">
<title>Node1</title>
<g id="a_node1"><a xlink:title="Base exception for errors thrown in server.">
<polygon fill="#999999" stroke="#666666" points="390,-102 262,-102 262,-72 390,-72 390,-102"/>
<text text-anchor="start" x="270" y="-90" font-family="Helvetica,sans-Serif" font-size="10.00">cavoke::server::cavoke</text>
<text text-anchor="middle" x="326" y="-79" font-family="Helvetica,sans-Serif" font-size="10.00">_base_exception</text>
</a>
</g>
</g>
<!-- Node4 -->
<g id="node4" class="node">
<title>Node4</title>
<g id="a_node4"><a xlink:href="structcavoke_1_1server_1_1model_1_1game__session__error.html" target="_top" xlink:title="exception for errors thrown during actions with sessions">
<polygon fill="white" stroke="#666666" points="551,-174 426,-174 426,-144 551,-144 551,-174"/>
<text text-anchor="start" x="434" y="-162" font-family="Helvetica,sans-Serif" font-size="10.00">cavoke::server::model</text>
<text text-anchor="middle" x="488.5" y="-151" font-family="Helvetica,sans-Serif" font-size="10.00">::game_session_error</text>
</a>
</g>
</g>
<!-- Node1&#45;&gt;Node4 -->
<g id="edge3" class="edge">
<title>Node1&#45;&gt;Node4</title>
<path fill="none" stroke="#63b8ff" d="M365.71,-106.65C383.86,-115.64 405.88,-126.21 426,-135 432.93,-138.03 440.38,-141.09 447.61,-143.97"/>
<polygon fill="#63b8ff" stroke="#63b8ff" points="367.12,-103.44 356.61,-102.12 364,-109.71 367.12,-103.44"/>
</g>
<!-- Node5 -->
<g id="node5" class="node">
<title>Node5</title>
<g id="a_node5"><a xlink:href="structcavoke_1_1server_1_1model_1_1game__state__error.html" target="_top" xlink:title="exception for errors thrown during actions with game states">
<polygon fill="white" stroke="#666666" points="551,-126 426,-126 426,-96 551,-96 551,-126"/>
<text text-anchor="start" x="434" y="-114" font-family="Helvetica,sans-Serif" font-size="10.00">cavoke::server::model</text>
<text text-anchor="middle" x="488.5" y="-103" font-family="Helvetica,sans-Serif" font-size="10.00">::game_state_error</text>
</a>
</g>
</g>
<!-- Node1&#45;&gt;Node5 -->
<g id="edge4" class="edge">
<title>Node1&#45;&gt;Node5</title>
<path fill="none" stroke="#63b8ff" d="M400.36,-97.97C408.88,-99.24 417.5,-100.53 425.84,-101.78"/>
<polygon fill="#63b8ff" stroke="#63b8ff" points="400.84,-94.5 390.43,-96.49 399.81,-101.43 400.84,-94.5"/>
</g>
<!-- Node6 -->
<g id="node6" class="node">
<title>Node6</title>
<g id="a_node6"><a xlink:href="structcavoke_1_1server_1_1model_1_1room__error.html" target="_top" xlink:title="exception for errors thrown during actions with rooms">
<polygon fill="white" stroke="#666666" points="551,-78 426,-78 426,-48 551,-48 551,-78"/>
<text text-anchor="start" x="434" y="-66" font-family="Helvetica,sans-Serif" font-size="10.00">cavoke::server::model</text>
<text text-anchor="middle" x="488.5" y="-55" font-family="Helvetica,sans-Serif" font-size="10.00">::room_error</text>
</a>
</g>
</g>
<!-- Node1&#45;&gt;Node6 -->
<g id="edge5" class="edge">
<title>Node1&#45;&gt;Node6</title>
<path fill="none" stroke="#63b8ff" d="M400.36,-76.03C408.88,-74.76 417.5,-73.47 425.84,-72.22"/>
<polygon fill="#63b8ff" stroke="#63b8ff" points="399.81,-72.57 390.43,-77.51 400.84,-79.5 399.81,-72.57"/>
</g>
<!-- Node7 -->
<g id="node7" class="node">
<title>Node7</title>
<g id="a_node7"><a xlink:href="structcavoke_1_1server_1_1model_1_1validation__error.html" target="_top" xlink:title="is thrown when trying to start a new session with invalid config">
<polygon fill="white" stroke="#666666" points="551,-30 426,-30 426,0 551,0 551,-30"/>
<text text-anchor="start" x="434" y="-18" font-family="Helvetica,sans-Serif" font-size="10.00">cavoke::server::model</text>
<text text-anchor="middle" x="488.5" y="-7" font-family="Helvetica,sans-Serif" font-size="10.00">::validation_error</text>
</a>
</g>
</g>
<!-- Node1&#45;&gt;Node7 -->
<g id="edge6" class="edge">
<title>Node1&#45;&gt;Node7</title>
<path fill="none" stroke="#63b8ff" d="M365.71,-67.35C383.86,-58.36 405.88,-47.79 426,-39 432.93,-35.97 440.38,-32.91 447.61,-30.03"/>
<polygon fill="#63b8ff" stroke="#63b8ff" points="364,-64.29 356.61,-71.88 367.12,-70.56 364,-64.29"/>
</g>
<!-- Node2 -->
<g id="node2" class="node">
<title>Node2</title>
<g id="a_node2"><a xlink:title=" ">
<polygon fill="white" stroke="#666666" points="226,-96.5 122,-96.5 122,-77.5 226,-77.5 226,-96.5"/>
<text text-anchor="middle" x="174" y="-84.5" font-family="Helvetica,sans-Serif" font-size="10.00">std::runtime_error</text>
</a>
</g>
</g>
<!-- Node2&#45;&gt;Node1 -->
<g id="edge1" class="edge">
<title>Node2&#45;&gt;Node1</title>
<path fill="none" stroke="#63b8ff" d="M236.32,-87C244.73,-87 253.38,-87 261.82,-87"/>
<polygon fill="#63b8ff" stroke="#63b8ff" points="236.2,-83.5 226.2,-87 236.2,-90.5 236.2,-83.5"/>
</g>
<!-- Node3 -->
<g id="node3" class="node">
<title>Node3</title>
<g id="a_node3"><a xlink:title=" ">
<polygon fill="white" stroke="#666666" points="86,-96.5 0,-96.5 0,-77.5 86,-77.5 86,-96.5"/>
<text text-anchor="middle" x="43" y="-84.5" font-family="Helvetica,sans-Serif" font-size="10.00">std::exception</text>
</a>
</g>
</g>
<!-- Node3&#45;&gt;Node2 -->
<g id="edge2" class="edge">
<title>Node3&#45;&gt;Node2</title>
<path fill="none" stroke="#63b8ff" d="M96.27,-87C104.65,-87 113.31,-87 121.66,-87"/>
<polygon fill="#63b8ff" stroke="#63b8ff" points="96.24,-83.5 86.24,-87 96.24,-90.5 96.24,-83.5"/>
</g>
</g>
</svg>
