<?xml version="1.0" encoding="UTF-8" standalone="no"?>
<!DOCTYPE svg PUBLIC "-//W3C//DTD SVG 1.1//EN"
 "http://www.w3.org/Graphics/SVG/1.1/DTD/svg11.dtd">
<!-- Generated by graphviz version 2.43.0 (0)
 -->
<!-- Title: cavoke::server::model::game_session_error Pages: 1 -->
<svg width="136pt" height="214pt"
 viewBox="0.00 0.00 136.00 214.00" xmlns="http://www.w3.org/2000/svg" xmlns:xlink="http://www.w3.org/1999/xlink">
<g id="graph0" class="graph" transform="scale(1 1) rotate(0) translate(4 210)">
<title>cavoke::server::model::game_session_error</title>
<!-- Node1 -->
<g id="node1" class="node">
<title>Node1</title>
<g id="a_node1"><a xlink:title="exception for errors thrown during actions with sessions">
<polygon fill="#999999" stroke="#666666" points="126.5,-30 1.5,-30 1.5,0 126.5,0 126.5,-30"/>
<text text-anchor="start" x="9.5" y="-18" font-family="Helvetica,sans-Serif" font-size="10.00">cavoke::server::model</text>
<text text-anchor="middle" x="64" y="-7" font-family="Helvetica,sans-Serif" font-size="10.00">::game_session_error</text>
</a>
</g>
</g>
<!-- Node2 -->
<g id="node2" class="node">
<title>Node2</title>
<g id="a_node2"><a xlink:href="structcavoke_1_1server_1_1cavoke__base__exception.html" target="_top" xlink:title="Base exception for errors thrown in server.">
<polygon fill="white" stroke="#666666" points="128,-96 0,-96 0,-66 128,-66 128,-96"/>
<text text-anchor="start" x="8" y="-84" font-family="Helvetica,sans-Serif" font-size="10.00">cavoke::server::cavoke</text>
<text text-anchor="middle" x="64" y="-73" font-family="Helvetica,sans-Serif" font-size="10.00">_base_exception</text>
</a>
</g>
</g>
<!-- Node2&#45;&gt;Node1 -->
<g id="edge1" class="edge">
<title>Node2&#45;&gt;Node1</title>
<path fill="none" stroke="#63b8ff" d="M64,-55.54C64,-46.96 64,-37.61 64,-30.16"/>
<polygon fill="#63b8ff" stroke="#63b8ff" points="60.5,-55.8 64,-65.8 67.5,-55.8 60.5,-55.8"/>
</g>
<!-- Node3 -->
<g id="node3" class="node">
<title>Node3</title>
<g id="a_node3"><a xlink:title=" ">
<polygon fill="white" stroke="#666666" points="116,-151 12,-151 12,-132 116,-132 116,-151"/>
<text text-anchor="middle" x="64" y="-139" font-family="Helvetica,sans-Serif" font-size="10.00">std::runtime_error</text>
</a>
</g>
</g>
<!-- Node3&#45;&gt;Node2 -->
<g id="edge2" class="edge">
<title>Node3&#45;&gt;Node2</title>
<path fill="none" stroke="#63b8ff" d="M64,-121.65C64,-113.36 64,-103.78 64,-96.11"/>
<polygon fill="#63b8ff" stroke="#63b8ff" points="60.5,-121.87 64,-131.87 67.5,-121.87 60.5,-121.87"/>
</g>
<!-- Node4 -->
<g id="node4" class="node">
<title>Node4</title>
<g id="a_node4"><a xlink:title=" ">
<polygon fill="white" stroke="#666666" points="107,-206 21,-206 21,-187 107,-187 107,-206"/>
<text text-anchor="middle" x="64" y="-194" font-family="Helvetica,sans-Serif" font-size="10.00">std::exception</text>
</a>
</g>
</g>
<!-- Node4&#45;&gt;Node3 -->
<g id="edge3" class="edge">
<title>Node4&#45;&gt;Node3</title>
<path fill="none" stroke="#63b8ff" d="M64,-176.66C64,-167.93 64,-157.99 64,-151.09"/>
<polygon fill="#63b8ff" stroke="#63b8ff" points="60.5,-176.75 64,-186.75 67.5,-176.75 60.5,-176.75"/>
</g>
</g>
</svg>
